<svg width="24" height="24" viewBox="0 0 24 24" fill="none" xmlns="http://www.w3.org/2000/svg">
<g id="lucide/linkedin">
<g id="Vector">
<path d="M16 9C17.5913 9 19.1174 9.63214 20.2426 10.7574C21.3679 11.8826 22 13.4087 22 15V22H18V15C18 14.4696 17.7893 13.9609 17.4142 13.5858C17.0391 13.2107 16.5304 13 16 13C15.4696 13 14.9609 13.2107 14.5858 13.5858C14.2107 13.9609 14 14.4696 14 15V22H10V15C10 13.4087 10.6321 11.8826 11.7574 10.7574C12.8826 9.63214 14.4087 9 16 9Z" stroke="#0B0000" stroke-width="2" stroke-linecap="round" stroke-linejoin="round"/>
<path d="M6 10H2V22H6V10Z" stroke="#0B0000" stroke-width="2" stroke-linecap="round" stroke-linejoin="round"/>
<path d="M4 7C5.10457 7 6 6.10457 6 5C6 3.89543 5.10457 3 4 3C2.89543 3 2 3.89543 2 5C2 6.10457 2.89543 7 4 7Z" stroke="#0B0000" stroke-width="2" stroke-linecap="round" stroke-linejoin="round"/>
</g>
</g>
</svg>
